# xmcd
#
# Track frame offsets:
#	150
#	12267
#	22473
#	35373
#	44916
#	55463
#	68770
#	77398
#	88980
#	101833
#	111919
#	126816
#
# Disc length: 1833 seconds
#
# Revision: 1
# Processed by: cddbd v1.5.1PL2 Copyright (c) Steve Scherf et al.
# Submitted via: audiograbber 1.83.01
#
DISCID=aa07270c
DTITLE=Billie Jo Spears - Country Stars and Stripes
DYEAR=2001
DGENRE=Country
TTITLE0=Look What They've Done To My Song
TTITLE1=It Makes No Difference Now
TTITLE2=He's On The Run Again
TTITLE3=Danny
TTITLE4=I'm So Lonesome I Could Cry
TTITLE5=Fever
TTITLE6=You're My Man
TTITLE7=Ease The Want In Me
TTITLE8=Dallas
TTITLE9=I Stayed Long Enough
TTITLE10=I'll Never Be Free
TTITLE11=Come On Home
EXTD=
EXTT0=
EXTT1=
EXTT2=
EXTT3=
EXTT4=
EXTT5=
EXTT6=
EXTT7=
EXTT8=
EXTT9=
EXTT10=
EXTT11=
PLAYORDER=
